<?xml version="1.0" encoding="UTF-8"?>
<svg version="1.1" viewBox="0 0 2048 941" width="274" height="126" xmlns="http://www.w3.org/2000/svg">
<path transform="translate(0)" d="m0 0h2048v941h-2048z" fill="#FCFDFD"/>
<path transform="translate(227,146)" d="m0 0h26l2 4 1 23 4 4 17 8 5 2 4-1 11-10 10-6 8 4 9 8 5 7-2 5-14 15-2 8 5 15 5 5 16 4 15 3 1 2v21l-2 6-6 2-19 2-5 3-6 9-4 9v6l7 9 9 12 1 6-7 8-9 8-4 1-10-6-11-9-5-2-9 2-10 7-4 6-6 26-2 2h-23l-3-2-4-23-4-8-10-7-8-3-7 1-15 12-7 4-4-1-8-7-8-10 1-6 9-11 6-7 1-5-4-12-5-8-8-4-21-3-4-4v-25l9-3 20-4 5-3 5-10 1-3v-12l-6-8-9-10 1-7 13-13 5-3 5 1 12 11 9 5 8-1 15-8 2-2 2-15 1-11z" fill="#9DB7FE"/>
<path transform="translate(203,594)" d="m0 0 6 2 14 7 11 3h10l12-3 17-9 6 4 11 11 8 13 4 10 1 4v76l-1 30h-104l-22-1-1-31v-66l2-16 7-14 8-10z" fill="#9CB6FD"/>
<path transform="translate(27,593)" d="m0 0 5 2 15 8 9 3h13l13-4 12-6h2v-2l5 1 11 12 9 13 4 9 1 8v105h-126v-117l6-7 7-10 9-10 3-3h2z" fill="#9CB6FD"/>
<path transform="translate(379,593)" d="m0 0 20 10 8 3h14l12-4 15-8 5 2 5 4 11 14 7 14 1 4v110h-111l-14-1v-106l2-10 7-12 12-14 4-4h2z" fill="#9CB7FD"/>
<path transform="translate(1187,144)" d="m0 0h15l12 3 9 6 6 9 2 7 3 58 1 31 3 8 1 3-8 24-2 8v12l4 6 5 4v10l-5 50-1 3-12 2-23 1h-27l-23-2-2-5-3-20-6-29v-21l5-25 6-21 1-2v-25l1-31 5 2 18 9 4 6 2 8v21l-3 5-5 1v7l-1 9 2 16 6 25 1 7 4-4 8-17 13-21 8-12 7-9-3 1-5-5-6-9-10-7 4-2 15-5 10-8 3-5 1-6v-42l-5-9-5-1-8 11-9 8-15 10-7 2-16-2-10 4h-2v-16l3-13 6-10 9-7 9-4z" fill="#863081"/>
<path transform="translate(887,479)" d="m0 0h26l4 8 20 66 7 23 3 6 14-43 12-36 7-23h40v135l-1 1h-25l-1-3v-101l-11 35-21 63-4 6h-21l-4-2-11-33-12-40-9-26h-1l1 11v89l-1 1h-24v-136z" fill="#050204"/>
<path transform="translate(228,385)" d="m0 0h22v40h159l16 1v58l-3 1h-17l-1-14v-25h-155v32h-20l-1-2v-30h-154l-1 39h-20v-59l46-1h129z" fill="#070305"/>
<path transform="translate(1187,479)" d="m0 0h35l6 8 32 56 16 27 6 9v2h2l-1-2-2-22v-77l14-1h12v136l-1 1h-34l-4-5-14-24-13-23-14-24-9-15-4-8-2-1 1 30-1 69-1 1h-20l-4-1-1-19v-52z" fill="#050204"/>
<path transform="translate(225,491)" d="m0 0h22l13 4 12 7 11 11 8 13 5 16 1 6v8l-2 8-7 14-8 10-8 8-19 9-9 2h-10l-13-4-16-8-7-7-10-14-5-13-2-11 1-12 4-13 7-12 9-9 14-9z" fill="#F3C24C"/>
<path transform="translate(1720,479)" d="m0 0h31l20 1 16 3 9 4 8 6 5 7 4 12v17l-4 11-7 8-10 6h-2l3 9 28 42 5 9v2h-25l-6-2-7-10-15-24-8-12-1-3-3-1h-10l-2 4-1 43-1 5h-27l-1-1v-135z" fill="#050305"/>
<path transform="translate(406,490)" d="m0 0h14l16 5 10 6 10 9 9 13 4 9 3 14v11l-2 9-7 13-9 11-9 7-17 8-7 2h-14l-15-6-10-6-10-9-7-10-5-12-2-8v-16l3-12 6-12 8-9 13-10 10-5z" fill="#F3C24C"/>
<path transform="translate(700,479)" d="m0 0h24l27 1 16 3 12 6 7 7 6 12 1 6v13l-3 10-7 9-6 5-6 4 1 6 10 16 16 24 8 13v3l-26-1-7-3-9-15-14-23-7-9-7-3-6-1-1 6-1 41-1 7h-18l-10-1v-135z" fill="#050204"/>
<path transform="translate(57,490)" d="m0 0h8l14 3 14 7 10 8 8 11 6 12 3 12v17l-4 11-7 11-9 10-4 2v2l-19 9-8 2h-13l-9-3-17-9-8-7-10-15-5-12-1-5v-14l3-12 8-16 11-11 14-9 8-3z" fill="#F3C24C"/>
<path transform="translate(1373,479)" d="m0 0h35l4 9 20 58 17 48 7 20v2h-19l-12-1-3-7-6-22-1-1-49-1-5 15-4 14-3 3-29-1 12-36 15-42 17-49z" fill="#050204"/>
<path transform="translate(1086,479)" d="m0 0h34l6 12 20 57 15 43 7 22v3h-25l-6-2-8-28-1-2-50 1-4 15-5 15-1 1h-29l2-9 19-56 13-36 12-35z" fill="#050204"/>
<path transform="translate(553,480)" d="m0 0h28l1 52h53v-42l1-10h28v132l-1 4h-27l-1-1-1-57-52-1-1 58-1 1h-27l-1-1v-122z" fill="#050304"/>
<path transform="translate(1525,478)" d="m0 0h25l15 3 10 3 2 2-1 9-4 10-2 2-8-1-9-2-16-1-11 1-14 7-6 7-6 12-2 12v16l3 14 6 10 4 5 8 4 6 1h19l5-1 1-3v-21l-2-2-8-1h-14l-1-2v-22l1-1h52l1 1v64l-2 7-10 3-19 3h-31l-12-3-10-5-10-8-7-9-7-14-3-14v-30l4-16 6-12 8-10 7-6 12-7 13-4z" fill="#050204"/>
<path transform="translate(1612,479)" d="m0 0h78v24l-1 1h-48v29h46v23l-1 1-45 1v29l1 4h47v25h-77z" fill="#050204"/>
<path transform="translate(1010,332)" d="m0 0h72l11 24 13 30 3 6 24 3-1 5-2 3h-31l-36-3-15-2h-17l-15-2-5-8-15-36-6-15v-4z" fill="#852F80"/>
<path transform="translate(232,215)" d="m0 0h13l13 4 10 6 7 7 6 12 1 4v18l-4 12-8 11-8 7-12 5-4 1h-14l-13-4-9-5-8-9-5-12-2-10v-8l2-9 6-11 9-10 12-7z" fill="#FCFDFD"/>
<path transform="translate(1217,162)" d="m0 0 5 1 5 7 1 3v42l-2 8-6 7-9 6-16 5 11 8 7 11 5 1-2 4-9 12-12 20-8 14-6 12-3 1-9-36-1-16 2-12 6-3 1-3v-21l-3-10-5-5-10-4-10-6v-5l1-2-1-4v-11h1v10l12-5 16 2 8-3 11-7 11-9z" fill="#F8AAA0"/>
<path transform="translate(1187,144)" d="m0 0h15l12 3 9 6 6 9 2 7 3 58 1 34-20 1-5-5-6-9-10-7 4-2 15-5 10-8 3-5 1-6v-42l-5-9-5-1-8 11-9 8-15 10-7 2-16-2-10 4h-2v-16l3-13 6-10 9-7 9-4z" fill="#34181B"/>
<path transform="translate(1146,266)" d="m0 0 1 3-8 31-2 12v21l1 11-3 45-2 6-18-1-7-2-5-10-3-10 2-2 4-20 7-43 5-18 6-11 9-6 12-5z" fill="#FBAABF"/>
<path transform="translate(1238,266)" d="m0 0 4 2 8 7 9 10 13 18 9 15 4 11 1 14v20l-1 10-5-3-15-15-9-11-11-12-5-5h-2l-2-5-5-4-3-5v-12l6-21 4-11z" fill="#FBAABF"/>
<path transform="translate(1227,413)" d="m0 0h7l5 18-1 3h-90l-7-1 1-10 2-9 25 1h39z" fill="#863081"/>
<path transform="translate(1149,208)" d="m0 0 5 2 18 9 4 6 2 8v21l-3 5-17 4-10 1v-25z" fill="#33181B"/>
<path transform="translate(401,605)" d="m0 0 6 1h14l7-1-5 5v10l4 26v14l-3 6-7 11-5-1-7-10-3-7v-11l4-26v-10l-3-5z" fill="#0789E8"/>
<path transform="translate(73,605)" d="m0 0 4 1-5 5v14l3 21v15l-6 12-3 4-5-1-4-5-5-8-1-3v-14l3-20v-15l-2-5h17z" fill="#0789E8"/>
<path transform="translate(1346,334)" d="m0 0h17l-1 19-1 3h-36l-1-18h-2l1 8v10h-22l-1-1-1-11v-9z" fill="#F8AAA0"/>
<path transform="translate(226,605)" d="m0 0 8 1h10l9-1-4 4h-2v15l5 24v10l-3 7-8 10-2 1-7-6-6-10-1-8 7-31v-10l-3-3z" fill="#0789E8"/>
<path transform="translate(1230,169)" d="m0 0h1l3 58 1 34-20 1-5-5-6-9-10-7 4-2 15-5 10-8 3-5 1-6v-45l2 2z" fill="#391922"/>
<path transform="translate(729,503)" d="m0 0 16 1 12 3 4 2 3 7v9l-3 7-4 4-8 3-7 1h-13l-1-1v-35z" fill="#FCFAFA"/>
<path transform="translate(1749,503)" d="m0 0 16 1 12 3 5 4 2 3v14l-4 6-8 4-11 2h-12l-1-2v-30z" fill="#FCFAFA"/>
<path transform="translate(1102,504)" d="m0 0 3 1 8 24 8 26v3l-2 1h-32l-1-3 6-18 7-24z" fill="#FBF6F6"/>
<path transform="translate(1389,504)" d="m0 0h2l6 16 10 33v5l-3 1h-31l3-11 9-29z" fill="#FCF7F8"/>
<path transform="translate(1231,395)" d="m0 0h2v7l-7 3-9 1-43 1-23-2-5-2-1-1v-5h51l26-1z" fill="#852F80"/>
<path transform="translate(1045,397)" d="m0 0 12 1 26 3 16 1 31 1-3 4-6 2h-18l21 2-2 4-11-1-26-5-24-6-30-4v-1z" fill="#FBAABF"/>
<path transform="translate(1316,255)" d="m0 0h20l4 2v11l-2 4-3 1h-10l-6-2-2-6z" fill="#F3C24E"/>
<path transform="translate(1045,397)" d="m0 0 12 1 26 3 16 1 3 1 22 1v1l-10 1h-21l-28-2-26-4-8-1v-1z" fill="#F8AAA4"/>
<path transform="translate(1364,369)" d="m0 0 3 1-1 5-2 1h-36v-6z" fill="#F7A9A3"/>
<path transform="translate(1043,358)" d="m0 0 6 1 3 4v6l-3 3h-6l-5-5 1-5z" fill="#FCEEEF"/>
<path transform="translate(1296,370)" d="m0 0h28v2h-2v4l-4 1h-7l-1-4-10 3h-4l-1-4z" fill="#ED9CB1"/>
<path transform="translate(1149,186)" d="m0 0h1v10l12-5 8 1-4 1-1 3-3 3-2 4-5 1-3-2 1-2-4-1z" fill="#FBAABE"/>
<path transform="translate(1316,255)" d="m0 0h20l4 2-2 2h-7l-11 3-1 3h-2z" fill="#F8AAA3"/>
<path transform="translate(1045,397)" d="m0 0 12 1 26 3v1h-29l-23-3v-1z" fill="#FBAABC"/>
<path transform="translate(1217,162)" d="m0 0h3l3 6 1 7-1 2-3-1-3-3-4-3 3-7z" fill="#F3C152"/>
<path transform="translate(1337,261)" d="m0 0h3v7l-2 4-3 1h-10l3-2h2l2-5 3-3h2z" fill="#F8AAA5"/>
<path transform="translate(1145,397)" d="m0 0h15l-1 3-4 1v2l-8 1-2-2z" fill="#3F1B29"/>
<path transform="translate(1226,170)" d="m0 0 2 3v11l-1 18h-1v-7l-3 3-2 3-2-1 5-8 1-1z" fill="#FCAAC0"/>
<path transform="translate(1328,370)" d="m0 0h9v2l-5 1 3 1v2h-7z" fill="#FCAAC0"/>
<path transform="translate(1313,370)" d="m0 0h11v2h-2v4h-2l1-4h-8z" fill="#D07EA0"/>
</svg>
